<?xml version="1.0" encoding="utf-8" ?>
<svg baseProfile="full" height="100" version="1.1" width="600" xmlns="http://www.w3.org/2000/svg" xmlns:ev="http://www.w3.org/2001/xml-events" xmlns:xlink="http://www.w3.org/1999/xlink"><defs /><rect fill="white" height="80" stroke="black" stroke-width="2" width="80" x="5" y="5" /><text style="font-size:7px; font-family:Arial" x="40.0" y="95">P1</text><rect fill="white" height="80" stroke="black" stroke-width="2" width="80" x="105" y="5" /><text style="font-size:7px; font-family:Arial" x="140.0" y="95">P2</text><rect fill="white" height="80" stroke="black" stroke-width="2" width="80" x="205" y="5" /><text style="font-size:7px; font-family:Arial" x="240.0" y="95">P3</text><line stroke="black" stroke-width="1" x1="45.0" x2="45.0" y1="5" y2="85" /><text style="font-size:7px; font-family:Arial" x="47.0" y="13">2</text><line stroke="black" stroke-width="1" x1="145.0" x2="145.0" y1="5" y2="85" /><text style="font-size:7px; font-family:Arial" x="147.0" y="13">2</text><line stroke="black" stroke-width="1" x1="245.0" x2="245.0" y1="5" y2="85" /><text style="font-size:7px; font-family:Arial" x="247.0" y="13">2</text><rect fill="white" height="80" stroke="black" stroke-width="2" width="80" x="305" y="5" /><text style="font-size:7px; font-family:Arial" x="340.0" y="95">E</text><line stroke="black" stroke-width="1" x1="105" x2="185" y1="45.0" y2="45.0" /><text style="font-size:7px; font-family:Arial" x="107" y="43.0">E</text><line stroke="black" stroke-width="1" x1="305" x2="385" y1="45.0" y2="45.0" /><text style="font-size:7px; font-family:Arial" x="307" y="43.0">E</text><line stroke="black" stroke-width="1" x1="25.0" x2="85" y1="5" y2="65.0" /><text style="font-size:7px; font-family:Arial" x="35.0" y="13">2</text><line stroke="black" stroke-width="1" x1="325.0" x2="385" y1="5" y2="65.0" /><text style="font-size:7px; font-family:Arial" x="335.0" y="13">2</text><line stroke="black" stroke-width="1" x1="16.42857142857143" x2="62.142857142857146" y1="5" y2="85" /><text style="font-size:7px; font-family:Arial" x="22.42857142857143" y="13">3</text><line stroke="black" stroke-width="1" x1="316.42857142857144" x2="362.14285714285717" y1="5" y2="85" /><text style="font-size:7px; font-family:Arial" x="322.42857142857144" y="13">3</text><line stroke="black" stroke-width="1" x1="73.57142857142857" x2="27.857142857142858" y1="5" y2="85" /><text style="font-size:7px; font-family:Arial" x="75.57142857142857" y="13">1</text><line stroke="black" stroke-width="1" x1="373.57142857142856" x2="327.85714285714283" y1="5" y2="85" /><text style="font-size:7px; font-family:Arial" x="375.57142857142856" y="13">1</text><line stroke="black" stroke-width="1" x1="305" x2="365.0" y1="65.0" y2="5" /><text style="font-size:7px; font-family:Arial" x="311" y="65.0">1</text></svg>