<?xml version="1.0" encoding="utf-8" ?>
<svg baseProfile="full" height="120" version="1.1" width="600" xmlns="http://www.w3.org/2000/svg" xmlns:ev="http://www.w3.org/2001/xml-events" xmlns:xlink="http://www.w3.org/1999/xlink"><defs /><rect fill="white" height="80" stroke="black" stroke-width="2" width="80" x="16.0" y="16.0" /><text style="font-size:7px; font-family:Arial" x="51.0" y="106.0">P1</text><rect fill="white" height="80" stroke="black" stroke-width="2" width="80" x="121.0" y="16.0" /><text style="font-size:7px; font-family:Arial" x="156.0" y="106.0">P2</text><rect fill="white" height="80" stroke="black" stroke-width="2" width="80" x="226.0" y="16.0" /><text style="font-size:7px; font-family:Arial" x="261.0" y="106.0">P3</text><rect fill="white" height="80" stroke="black" stroke-width="2" width="80" x="331.0" y="16.0" /><text style="font-size:7px; font-family:Arial" x="366.0" y="106.0">P4</text><line stroke="black" stroke-width="1" x1="16.0" x2="96.0" y1="96.0" y2="16.0" /><text style="font-size:7px; font-family:Arial" x="7.5" y="96.0">4</text><line stroke="black" stroke-width="1" x1="121.0" x2="201.0" y1="56.0" y2="56.0" /><text style="font-size:7px; font-family:Arial" x="112.5" y="56.0">3</text><line stroke="black" stroke-width="1" x1="121.0" x2="201.0" y1="96.0" y2="16.0" /><text style="font-size:7px; font-family:Arial" x="112.5" y="96.0">4</text><line stroke="black" stroke-width="1" x1="226.0" x2="306.0" y1="56.0" y2="56.0" /><text style="font-size:7px; font-family:Arial" x="217.5" y="56.0">2</text><line stroke="black" stroke-width="1" x1="226.0" x2="306.0" y1="80.0" y2="80.0" /><text style="font-size:7px; font-family:Arial" x="217.5" y="80.0">4</text><line stroke="black" stroke-width="1" style="stroke-dasharray:&quot;3&quot;" x1="266.0" x2="266.0" y1="16.0" y2="96.0" /><text style="font-size:7px; font-family:Arial" x="265.0" y="12.0">4</text><line stroke="black" stroke-width="1" x1="331.0" x2="411.0" y1="32.0" y2="32.0" /><text style="font-size:7px; font-family:Arial" x="322.5" y="32.0">1</text><line stroke="black" stroke-width="1" x1="331.0" x2="411.0" y1="56.0" y2="56.0" /><text style="font-size:7px; font-family:Arial" x="322.5" y="56.0">2</text><line stroke="black" stroke-width="1" x1="331.0" x2="411.0" y1="80.0" y2="80.0" /><text style="font-size:7px; font-family:Arial" x="322.5" y="80.0">3</text><line stroke="black" stroke-width="1" style="stroke-dasharray:&quot;3&quot;" x1="371.0" x2="371.0" y1="16.0" y2="96.0" /><text style="font-size:7px; font-family:Arial" x="370.0" y="12.0">3</text><line stroke="black" stroke-width="1" style="stroke-dasharray:&quot;3&quot;" x1="363.0" x2="379.0" y1="24.0" y2="40.0" /><text style="font-size:7px; font-family:Arial" x="363.0" y="24.0" /></svg>