<?xml version="1.0" encoding="utf-8" ?>
<svg baseProfile="full" height="120" version="1.1" width="600" xmlns="http://www.w3.org/2000/svg" xmlns:ev="http://www.w3.org/2001/xml-events" xmlns:xlink="http://www.w3.org/1999/xlink"><defs /><rect fill="white" height="80" stroke="black" stroke-width="2" width="80" x="16.0" y="16.0" /><text style="font-size:7px; font-family:Arial" x="51.0" y="106.0">P1</text><rect fill="white" height="80" stroke="black" stroke-width="2" width="80" x="121.0" y="16.0" /><text style="font-size:7px; font-family:Arial" x="156.0" y="106.0">P2</text><rect fill="white" height="80" stroke="black" stroke-width="2" width="80" x="226.0" y="16.0" /><text style="font-size:7px; font-family:Arial" x="261.0" y="106.0">P3</text><line stroke="black" stroke-width="1" x1="56.0" x2="56.0" y1="16.0" y2="96.0" /><text style="font-size:7px; font-family:Arial" x="53.0" y="12.0">3'</text><line stroke="black" stroke-width="1" x1="161.0" x2="161.0" y1="16.0" y2="96.0" /><text style="font-size:7px; font-family:Arial" x="158.0" y="12.0">3'</text><line stroke="black" stroke-width="1" x1="266.0" x2="266.0" y1="16.0" y2="96.0" /><text style="font-size:7px; font-family:Arial" x="263.0" y="12.0">3'</text><rect fill="white" height="80" stroke="black" stroke-width="2" width="80" x="331.0" y="16.0" /><text style="font-size:7px; font-family:Arial" x="366.0" y="106.0">P3'</text><line stroke="black" stroke-width="1" x1="331.0" x2="411.0" y1="32.0" y2="32.0" /><text style="font-size:7px; font-family:Arial" x="322.5" y="32.0">1</text><line stroke="black" stroke-width="1" x1="331.0" x2="411.0" y1="56.0" y2="56.0" /><text style="font-size:7px; font-family:Arial" x="322.5" y="56.0">2</text><line stroke="black" stroke-width="1" x1="331.0" x2="411.0" y1="80.0" y2="80.0" /><text style="font-size:7px; font-family:Arial" x="322.5" y="80.0">3</text></svg>